<svg xmlns="http://www.w3.org/2000/svg" xmlns:xlink="http://www.w3.org/1999/xlink" width="192.876" height="141" viewBox="0 0 192.876 141">
  <defs>
    <filter id="Rectangle_1" x="29" y="56" width="114.5" height="82" filterUnits="userSpaceOnUse">
      <feOffset dx="5" input="SourceAlpha"/>
      <feGaussianBlur stdDeviation="1.5" result="blur"/>
      <feFlood flood-opacity="0.38"/>
      <feComposite operator="in" in2="blur"/>
      <feComposite in="SourceGraphic"/>
    </filter>
    <filter id="Ellipse_1" x="32" y="14" width="48.5" height="48" filterUnits="userSpaceOnUse">
      <feOffset dx="5" input="SourceAlpha"/>
      <feGaussianBlur stdDeviation="1.5" result="blur-2"/>
      <feFlood flood-opacity="0.38"/>
      <feComposite operator="in" in2="blur-2"/>
      <feComposite in="SourceGraphic"/>
    </filter>
    <filter id="Ellipse_2" x="76" y="0" width="61.5" height="62" filterUnits="userSpaceOnUse">
      <feOffset dx="5" input="SourceAlpha"/>
      <feGaussianBlur stdDeviation="1.5" result="blur-3"/>
      <feFlood flood-opacity="0.38"/>
      <feComposite operator="in" in2="blur-3"/>
      <feComposite in="SourceGraphic"/>
    </filter>
    <filter id="Rectangle_2" x="0" y="66" width="32.5" height="28" filterUnits="userSpaceOnUse">
      <feOffset dx="5" input="SourceAlpha"/>
      <feGaussianBlur stdDeviation="1.5" result="blur-4"/>
      <feFlood flood-opacity="0.38"/>
      <feComposite operator="in" in2="blur-4"/>
      <feComposite in="SourceGraphic"/>
    </filter>
    <filter id="Polygon_1" x="133.457" y="51.964" width="59.419" height="89.036" filterUnits="userSpaceOnUse">
      <feOffset dx="5" input="SourceAlpha"/>
      <feGaussianBlur stdDeviation="1.5" result="blur-5"/>
      <feFlood flood-opacity="0.38"/>
      <feComposite operator="in" in2="blur-5"/>
      <feComposite in="SourceGraphic"/>
    </filter>
    <filter id="Rectangle_3" x="29" y="65" width="104.5" height="64" filterUnits="userSpaceOnUse">
      <feOffset dx="5" input="SourceAlpha"/>
      <feGaussianBlur stdDeviation="1.5" result="blur-6"/>
      <feFlood flood-opacity="0.38"/>
      <feComposite operator="in" in2="blur-6"/>
      <feComposite in="SourceGraphic"/>
    </filter>
    <filter id="Ellipse_3" x="76" y="5" width="52.5" height="53" filterUnits="userSpaceOnUse">
      <feOffset dx="5" input="SourceAlpha"/>
      <feGaussianBlur stdDeviation="1.5" result="blur-7"/>
      <feFlood flood-opacity="0.38"/>
      <feComposite operator="in" in2="blur-7"/>
      <feComposite in="SourceGraphic"/>
    </filter>
    <filter id="Ellipse_4" x="32" y="18" width="40.5" height="40" filterUnits="userSpaceOnUse">
      <feOffset dx="5" input="SourceAlpha"/>
      <feGaussianBlur stdDeviation="1.5" result="blur-8"/>
      <feFlood flood-opacity="0.38"/>
      <feComposite operator="in" in2="blur-8"/>
      <feComposite in="SourceGraphic"/>
    </filter>
    <filter id="Polygon_2" x="133.457" y="60.718" width="51.9" height="71.528" filterUnits="userSpaceOnUse">
      <feOffset dx="5" input="SourceAlpha"/>
      <feGaussianBlur stdDeviation="1.5" result="blur-9"/>
      <feFlood flood-opacity="0.38"/>
      <feComposite operator="in" in2="blur-9"/>
      <feComposite in="SourceGraphic"/>
    </filter>
    <filter id="Rectangle_4" x="0" y="69" width="28.5" height="24" filterUnits="userSpaceOnUse">
      <feOffset dx="5" input="SourceAlpha"/>
      <feGaussianBlur stdDeviation="1.5" result="blur-10"/>
      <feFlood flood-opacity="0.38"/>
      <feComposite operator="in" in2="blur-10"/>
      <feComposite in="SourceGraphic"/>
    </filter>
  </defs>
  <g id="Group_1" data-name="Group 1" transform="translate(-682.52 -180.226)">
    <g transform="matrix(1, 0, 0, 1, 682.52, 180.23)" filter="url(#Rectangle_1)">
      <rect id="Rectangle_1-2" data-name="Rectangle 1" width="105" height="73" rx="17" transform="translate(29 60.5)" fill="#ec1c01"/>
    </g>
    <g transform="matrix(1, 0, 0, 1, 682.52, 180.23)" filter="url(#Ellipse_1)">
      <circle id="Ellipse_1-2" data-name="Ellipse 1" cx="19.5" cy="19.5" r="19.5" transform="translate(32 18.5)" fill="#ec1c01"/>
    </g>
    <g transform="matrix(1, 0, 0, 1, 682.52, 180.23)" filter="url(#Ellipse_2)">
      <ellipse id="Ellipse_2-2" data-name="Ellipse 2" cx="26" cy="26.5" rx="26" ry="26.5" transform="translate(76 4.5)" fill="#ec1c01"/>
    </g>
    <g transform="matrix(1, 0, 0, 1, 682.52, 180.23)" filter="url(#Rectangle_2)">
      <rect id="Rectangle_2-2" data-name="Rectangle 2" width="23" height="19" rx="8" transform="translate(0 70.5)" fill="#ec1c01"/>
    </g>
    <g transform="matrix(1, 0, 0, 1, 682.52, 180.23)" filter="url(#Polygon_1)">
      <path id="Polygon_1-2" data-name="Polygon 1" d="M30.655,11.679a12,12,0,0,1,18.726,0L64.4,30.413a12,12,0,0,1-9.363,19.506H25a12,12,0,0,1-9.363-19.506Z" transform="translate(133.46 136.5) rotate(-90)" fill="#ec1c01"/>
    </g>
    <g transform="matrix(1, 0, 0, 1, 682.52, 180.23)" filter="url(#Rectangle_3)">
      <rect id="Rectangle_3-2" data-name="Rectangle 3" width="95" height="55" rx="17" transform="translate(29 69.5)" fill="#ec1c01"/>
    </g>
    <g transform="matrix(1, 0, 0, 1, 682.52, 180.23)" filter="url(#Ellipse_3)">
      <ellipse id="Ellipse_3-2" data-name="Ellipse 3" cx="21.5" cy="22" rx="21.5" ry="22" transform="translate(76 9.5)" fill="#ec1c01"/>
    </g>
    <g transform="matrix(1, 0, 0, 1, 682.52, 180.23)" filter="url(#Ellipse_4)">
      <circle id="Ellipse_4-2" data-name="Ellipse 4" cx="15.5" cy="15.5" r="15.5" transform="translate(32 22.5)" fill="#ec1c01"/>
    </g>
    <g transform="matrix(1, 0, 0, 1, 682.52, 180.23)" filter="url(#Polygon_2)">
      <path id="Polygon_2-2" data-name="Polygon 2" d="M21.606,13.1a12,12,0,0,1,19.316,0l7.506,10.18A12,12,0,0,1,38.77,42.4H23.758A12,12,0,0,1,14.1,23.278Z" transform="translate(133.46 127.75) rotate(-90)" fill="#ec1c01"/>
    </g>
    <g transform="matrix(1, 0, 0, 1, 682.52, 180.23)" filter="url(#Rectangle_4)">
      <rect id="Rectangle_4-2" data-name="Rectangle 4" width="19" height="15" rx="6" transform="translate(0 73.5)" fill="#ec1c01"/>
    </g>
    <rect id="Rectangle_5" data-name="Rectangle 5" width="19" height="33" rx="5" transform="translate(728.52 260.726)" fill="#fff"/>
    <rect id="Rectangle_8" data-name="Rectangle 8" width="6" height="5" transform="translate(726.52 252.726)" fill="#fff"/>
    <rect id="Rectangle_9" data-name="Rectangle 9" width="6" height="5" transform="translate(735.52 252.726)" fill="#fff"/>
    <rect id="Rectangle_10" data-name="Rectangle 10" width="6" height="5" transform="translate(743.52 252.726)" fill="#fff"/>
    <rect id="Rectangle_11" data-name="Rectangle 11" width="5" height="5" transform="translate(753.52 252.726)" fill="#fff"/>
    <rect id="Rectangle_12" data-name="Rectangle 12" width="6" height="5" transform="translate(762.52 252.726)" fill="#fff"/>
    <rect id="Rectangle_13" data-name="Rectangle 13" width="6" height="5" transform="translate(771.52 252.726)" fill="#fff"/>
    <rect id="Rectangle_14" data-name="Rectangle 14" width="6" height="5" transform="translate(780.52 252.726)" fill="#fff"/>
    <rect id="Rectangle_15" data-name="Rectangle 15" width="6" height="5" transform="translate(789.52 252.726)" fill="#fff"/>
    <rect id="Rectangle_16" data-name="Rectangle 16" width="6" height="5" transform="translate(726.52 296.726)" fill="#fff"/>
    <rect id="Rectangle_17" data-name="Rectangle 17" width="6" height="5" transform="translate(735.52 296.726)" fill="#fff"/>
    <rect id="Rectangle_18" data-name="Rectangle 18" width="6" height="5" transform="translate(743.52 296.726)" fill="#fff"/>
    <rect id="Rectangle_19" data-name="Rectangle 19" width="5" height="5" transform="translate(753.52 296.726)" fill="#fff"/>
    <rect id="Rectangle_20" data-name="Rectangle 20" width="6" height="5" transform="translate(762.52 296.726)" fill="#fff"/>
    <rect id="Rectangle_21" data-name="Rectangle 21" width="6" height="5" transform="translate(771.52 296.726)" fill="#fff"/>
    <rect id="Rectangle_22" data-name="Rectangle 22" width="6" height="5" transform="translate(780.52 296.726)" fill="#fff"/>
    <rect id="Rectangle_23" data-name="Rectangle 23" width="6" height="5" transform="translate(789.52 296.726)" fill="#fff"/>
    <rect id="Rectangle_24" data-name="Rectangle 24" width="19" height="33" rx="5" transform="translate(751.52 260.726)" fill="#fff"/>
    <rect id="Rectangle_25" data-name="Rectangle 25" width="19" height="33" rx="5" transform="translate(774.52 260.726)" fill="#fff"/>
  </g>
</svg>
